<?xml version="1.0" encoding="UTF-8"?>
<svg version="1.1" xmlns="http://www.w3.org/2000/svg" width="173" height="169">
<path d="M0 0 C57.09 0 114.18 0 173 0 C173 55.77 173 111.54 173 169 C115.91 169 58.82 169 0 169 C0 113.23 0 57.46 0 0 Z " fill="#099CEF" transform="translate(0,0)"/>
<path d="M0 0 C57.09 0 114.18 0 173 0 C173 55.77 173 111.54 173 169 C115.91 169 58.82 169 0 169 C0 113.23 0 57.46 0 0 Z M20 8 C20 55.52 20 103.04 20 152 C67.52 152 115.04 152 164 152 C164 104.48 164 56.96 164 8 C116.48 8 68.96 8 20 8 Z " fill="#7F7FFF" transform="translate(0,0)"/>
<path d="M0 0 C3.96 0 7.92 0 12 0 C12 52.8 12 105.6 12 160 C64.8 160 117.6 160 172 160 C172 107.2 172 54.4 172 0 C172.33 0 172.66 0 173 0 C173 55.77 173 111.54 173 169 C115.91 169 58.82 169 0 169 C0 113.23 0 57.46 0 0 Z " fill="#00A7A7" transform="translate(0,0)"/>
<path d="M0 0 C2.65861807 0.99452009 3.92545431 2.34428788 5.859375 4.4140625 C8.59565106 7.2626484 11.36707467 9.95987826 14.359375 12.5390625 C15.01421875 13.11011719 15.6690625 13.68117188 16.34375 14.26953125 C17.75105251 15.48068319 19.17715491 16.66998093 20.609375 17.8515625 C22.75867149 20.62773714 22.49450395 22.34111571 22.109375 25.7890625 C20.3527832 28.30615234 20.3527832 28.30615234 17.91015625 30.75 C17.03037109 31.63300781 16.15058594 32.51601562 15.24414062 33.42578125 C14.31279297 34.32941406 13.38144531 35.23304687 12.421875 36.1640625 C11.50986328 37.09089844 10.59785156 38.01773438 9.65820312 38.97265625 C2.82358698 45.72277169 2.82358698 45.72277169 -0.69458008 46.04931641 C-1.4192749 45.96343262 -2.14396973 45.87754883 -2.890625 45.7890625 C-3.61694336 43.55200195 -3.61694336 43.55200195 -3.890625 40.7890625 C-2.44360352 38.66088867 -2.44360352 38.66088867 -0.26953125 36.58203125 C0.50068359 35.83115234 1.27089844 35.08027344 2.06445312 34.30664062 C2.88365234 33.53771484 3.70285156 32.76878906 4.546875 31.9765625 C5.36220703 31.18830078 6.17753906 30.40003906 7.01757812 29.58789062 C9.03542084 27.64084941 11.06589309 25.70911899 13.109375 23.7890625 C11.72394624 20.63965364 10.13049656 18.61025965 7.6328125 16.2578125 C6.9625 15.61199219 6.2921875 14.96617188 5.6015625 14.30078125 C4.18599311 12.95572915 2.76669013 11.61459587 1.34375 10.27734375 C0.67601563 9.63152344 0.00828125 8.98570313 -0.6796875 8.3203125 C-1.29537598 7.73830078 -1.91106445 7.15628906 -2.54541016 6.55664062 C-3.890625 4.7890625 -3.890625 4.7890625 -3.890625 0.7890625 C-1.890625 -0.2109375 -1.890625 -0.2109375 0 0 Z " fill="#EEF7FE" transform="translate(105.890625,57.2109375)"/>
<path d="M0 0 C0.72018311 0.25410645 1.44036621 0.50821289 2.18237305 0.77001953 C1.67230706 4.94242263 0.58732694 6.85026104 -2.4152832 9.75830078 C-3.13393555 10.4640625 -3.85258789 11.16982422 -4.59301758 11.89697266 C-5.34776367 12.61820313 -6.10250977 13.33943359 -6.88012695 14.08251953 C-7.63874023 14.82308594 -8.39735352 15.56365234 -9.17895508 16.32666016 C-11.04981854 18.15045787 -12.92937187 19.96426257 -14.81762695 21.77001953 C-13.4306202 24.93579627 -11.839201 26.93027936 -9.3059082 29.26611328 C-8.63108398 29.90742187 -7.95625977 30.54873047 -7.26098633 31.20947266 C-5.83610452 32.54554423 -4.40372403 33.8736618 -2.96411133 35.19384766 C-2.2931543 35.83644531 -1.62219727 36.47904297 -0.9309082 37.14111328 C0.00047974 38.00627563 0.00047974 38.00627563 0.95068359 38.88891602 C2.18237305 40.77001953 2.18237305 40.77001953 1.87695312 43.49682617 C1.6477417 44.24697998 1.41853027 44.99713379 1.18237305 45.77001953 C-2.14605947 46.16780329 -3.47001875 46.02406128 -6.22119141 44.01342773 C-7.03289795 43.20736084 -7.84460449 42.40129395 -8.6809082 41.57080078 C-10.01025391 40.25112305 -10.01025391 40.25112305 -11.36645508 38.90478516 C-12.2784668 37.9734375 -13.19047852 37.04208984 -14.13012695 36.08251953 C-15.52714844 34.71450195 -15.52714844 34.71450195 -16.95239258 33.31884766 C-17.83217773 32.43261719 -18.71196289 31.54638672 -19.6184082 30.63330078 C-20.4244751 29.82159424 -21.23054199 29.0098877 -22.06103516 28.17358398 C-23.81762695 25.77001953 -23.81762695 25.77001953 -24.35620117 23.28588867 C-23.26503518 18.18866949 -18.72412686 14.90717306 -15.12011719 11.36572266 C-13.63280396 9.89766188 -12.17718439 8.40259372 -10.72192383 6.90283203 C-9.79057617 5.97470703 -8.85922852 5.04658203 -7.8996582 4.09033203 C-7.04605713 3.23713379 -6.19245605 2.38393555 -5.31298828 1.50488281 C-2.81762695 -0.22998047 -2.81762695 -0.22998047 0 0 Z " fill="#F0F9FD" transform="translate(79.817626953125,57.22998046875)"/>
<path d="M0 0 C1.14926266 0.95421808 2.29430541 1.91352045 3.4375 2.875 C4.07558594 3.40867188 4.71367187 3.94234375 5.37109375 4.4921875 C7 6 7 6 8 8 C5.36 8 2.72 8 0 8 C0 5.36 0 2.72 0 0 Z " fill="#00A7AE" transform="translate(20,144)"/>
<path d="M0 0 C2.64 0 5.28 0 8 0 C7.04578192 1.14926266 6.08647955 2.29430541 5.125 3.4375 C4.59132813 4.07558594 4.05765625 4.71367187 3.5078125 5.37109375 C2 7 2 7 0 8 C0 5.36 0 2.72 0 0 Z " fill="#00A7AE" transform="translate(20,8)"/>
<path d="M0 0 C0.33 0 0.66 0 1 0 C1 2.64 1 5.28 1 8 C-1.64 8 -4.28 8 -7 8 C-6.02133662 6.85373678 -5.04205413 5.70800212 -4.0625 4.5625 C-3.51722656 3.92441406 -2.97195312 3.28632813 -2.41015625 2.62890625 C-1.63204305 1.73008851 -0.84063472 0.84063472 0 0 Z " fill="#03A3AE" transform="translate(163,144)"/>
<path d="M0 0 C2.64 0 5.28 0 8 0 C8 2.64 8 5.28 8 8 C6.85073734 7.04578192 5.70569459 6.08647955 4.5625 5.125 C3.92441406 4.59132813 3.28632813 4.05765625 2.62890625 3.5078125 C1 2 1 2 0 0 Z " fill="#03A3AE" transform="translate(156,8)"/>
</svg>
